HIERARCHY
ROOT joint_0
{
	OFFSET 0.000000 0.000000 0.000000
	CHANNELS 6 Xposition Yposition Zposition Zrotation Yrotation Xrotation 
	JOINT joint_1
	{
		OFFSET 17.107422 0.519409 105.452026
		CHANNELS 3 Zrotation Yrotation Xrotation
		JOINT joint_2
		{
			OFFSET 6.110352 -1.434082 97.381958
			CHANNELS 3 Zrotation Yrotation Xrotation
			JOINT joint_3
			{
				OFFSET 6.305908 -1.739990 97.255005
				CHANNELS 3 Zrotation Yrotation Xrotation
				JOINT joint_4
				{
					OFFSET 22.074707 -0.492493 131.077026
					CHANNELS 3 Zrotation Yrotation Xrotation
					JOINT joint_5
					{
						OFFSET 34.162842 2.248718 78.700928
						CHANNELS 3 Zrotation Yrotation Xrotation
						End Site
						{
							OFFSET 0.000000 0.000000 0.000000
						}
					}
				}
				JOINT joint_6
				{
					OFFSET 17.059082 -28.836914 72.664062
					CHANNELS 3 Zrotation Yrotation Xrotation
					JOINT joint_7
					{
						OFFSET 22.639893 -134.803833 -24.691040
						CHANNELS 3 Zrotation Yrotation Xrotation
						JOINT joint_8
						{
							OFFSET 7.301758 -32.590759 -269.966064
							CHANNELS 3 Zrotation Yrotation Xrotation
							JOINT joint_9
							{
								OFFSET 35.581055 -8.517151 -242.326965
								CHANNELS 3 Zrotation Yrotation Xrotation
								End Site
								{
									OFFSET 0.000000 0.000000 0.000000
								}
							}
						}
					}
				}
				JOINT joint_10
				{
					OFFSET 7.819092 28.232056 74.432983
					CHANNELS 3 Zrotation Yrotation Xrotation
					JOINT joint_11
					{
						OFFSET -23.457031 135.063843 -22.406982
						CHANNELS 3 Zrotation Yrotation Xrotation
						JOINT joint_12
						{
							OFFSET 17.896973 48.138672 -267.131958
							CHANNELS 3 Zrotation Yrotation Xrotation
							JOINT joint_13
							{
								OFFSET 46.526367 17.567627 -239.975037
								CHANNELS 3 Zrotation Yrotation Xrotation
								End Site
								{
									OFFSET 0.000000 0.000000 0.000000
								}
							}
						}
					}
				}
			}
		}
	}
	JOINT joint_14
	{
		OFFSET 10.553467 -100.140320 -126.306030
		CHANNELS 3 Zrotation Yrotation Xrotation
		JOINT joint_15
		{
			OFFSET -52.094238 -9.565002 -436.052002
			CHANNELS 3 Zrotation Yrotation Xrotation
			JOINT joint_16
			{
				OFFSET -55.682617 -11.310120 -462.482971
				CHANNELS 3 Zrotation Yrotation Xrotation
				JOINT joint_17
				{
					OFFSET 179.119385 -5.942566 -84.087004
					CHANNELS 3 Zrotation Yrotation Xrotation
					End Site
					{
						OFFSET 0.000000 0.000000 0.000000
					}
				}
			}
		}
	}
	JOINT joint_18
	{
		OFFSET -22.235352 101.620483 -123.583984
		CHANNELS 3 Zrotation Yrotation Xrotation
		JOINT joint_19
		{
			OFFSET -38.118408 12.306396 -437.429016
			CHANNELS 3 Zrotation Yrotation Xrotation
			JOINT joint_20
			{
				OFFSET -51.789307 8.010498 -463.006004
				CHANNELS 3 Zrotation Yrotation Xrotation
				JOINT joint_21
				{
					OFFSET 170.088135 59.632324 -83.078003
					CHANNELS 3 Zrotation Yrotation Xrotation
					End Site
					{
						OFFSET 0.000000 0.000000 0.000000
					}
				}
			}
		}
	}
}
MOTION
Frames: 10
Frame Time: 0.016667
-3270.862793 882.733459 1129.183960 -3.231689 -2.951554 -0.235515 -0.411599 -0.710520 -0.019963 -0.399018 0.129190 -0.041482 -0.401199 -0.053976 -0.056346 0.197638 -4.552043 -0.090402 0.000000 0.000000 0.000000 -1.223062 1.617088 0.977231 -0.346832 1.020959 -1.585172 1.120008 -10.002913 3.997352 0.000000 0.000000 0.000000 -0.002231 1.575814 -0.164683 0.987363 1.723451 -0.258100 0.487384 -2.409387 3.378586 0.000000 0.000000 0.000000 -0.103640 -0.564116 -0.416942 -0.146023 0.831759 -0.321173 -0.229592 2.712693 -0.017600 0.000000 0.000000 0.000000 1.061283 0.668105 0.503546 1.113579 1.121200 0.044874 1.114029 1.339629 0.073278 0.000000 0.000000 0.000000 
-3269.647461 883.222290 1129.317993 -3.197910 -2.835258 -0.227826 -0.390961 -0.660232 -0.000651 -0.378167 0.124459 -0.036948 -0.379859 -0.047768 -0.055538 0.197637 -4.651016 -0.094089 0.000000 0.000000 0.000000 -1.055338 2.691837 0.515787 -0.618392 2.270735 -1.412187 1.670331 -15.683487 5.299947 0.000000 0.000000 0.000000 -0.072461 1.903168 -0.155008 1.202147 2.079707 -0.357152 0.414067 -3.727182 3.486043 0.000000 0.000000 0.000000 -0.057060 -0.585318 -0.530826 -0.125090 0.789568 -0.217646 -0.196281 2.622350 -0.004994 0.000000 0.000000 0.000000 1.117198 0.537808 0.447125 1.171538 1.241384 0.047451 1.164824 1.294710 0.113844 0.000000 0.000000 0.000000 
-3268.265137 884.073853 1129.389038 -3.142497 -2.748302 -0.237915 -0.444592 -0.631273 0.140694 -0.419358 0.103524 -0.108028 -0.427525 -0.038325 -0.015811 0.189007 -4.673354 -0.091707 0.000000 0.000000 0.000000 -0.826120 3.736658 -0.175053 -0.907955 3.522357 -1.223217 2.284546 -22.596866 6.496238 0.000000 0.000000 0.000000 0.034660 2.520300 -0.120214 1.514090 2.749055 -0.220656 0.105836 -6.194582 2.791095 0.000000 0.000000 0.000000 0.001825 -0.523016 -0.671806 -0.095916 0.677458 -0.078733 -0.152976 2.543082 0.012655 0.000000 0.000000 0.000000 1.126958 0.454242 0.392978 1.181884 1.354438 0.051243 1.167993 1.199806 0.148724 0.000000 0.000000 0.000000 
-3266.729248 885.229431 1129.418945 -3.066551 -2.680461 -0.260713 -0.554756 -0.621792 0.374811 -0.508266 0.072354 -0.228350 -0.527393 -0.024023 0.048754 0.177748 -4.640646 -0.096344 0.000000 0.000000 0.000000 -0.557234 4.836568 -0.833566 -1.208094 4.748610 -1.234069 2.927088 -30.720039 7.589358 0.000000 0.000000 0.000000 0.274227 3.342930 -0.165655 1.925822 3.679190 0.198188 -0.363587 -9.567532 1.513832 0.000000 0.000000 0.000000 0.073222 -0.395812 -0.841739 -0.059327 0.508919 0.095948 -0.099974 2.466508 0.034933 0.000000 0.000000 0.000000 1.104817 0.400501 0.336601 1.159115 1.468181 0.057175 1.137860 1.066032 0.180992 0.000000 0.000000 0.000000 
-3264.794434 886.501404 1129.477051 -3.045081 -2.610554 -0.278715 -0.637522 -0.614843 0.585775 -0.572812 0.045569 -0.322287 -0.600704 -0.016905 0.102043 0.171081 -4.572632 -0.120974 0.000000 0.000000 0.000000 -0.358347 5.999492 -1.610074 -1.507841 5.955049 -1.304559 3.485121 -39.314402 8.558790 0.000000 0.000000 0.000000 0.503020 4.364542 -0.124582 2.436718 4.809657 0.648264 -0.902346 -13.689750 0.000546 0.000000 0.000000 0.000000 0.154579 -0.253954 -1.008657 -0.008352 0.336697 0.239165 -0.037190 2.391145 0.061836 0.000000 0.000000 0.000000 1.097447 0.365432 0.259049 1.147983 1.599928 0.077821 1.118806 0.910529 0.226279 0.000000 0.000000 0.000000 
-3262.327148 887.771729 1129.628052 -3.133316 -2.526283 -0.278886 -0.635917 -0.609877 0.693964 -0.563814 0.036513 -0.338770 -0.593808 -0.030494 0.119145 0.175953 -4.463671 -0.180685 0.000000 0.000000 0.000000 -0.299264 7.328035 -2.648510 -1.822784 7.225589 -1.360735 3.899328 -48.357520 9.447711 0.000000 0.000000 0.000000 0.588899 5.623941 0.040758 3.065882 6.182298 1.112774 -1.487780 -18.691528 -1.681398 0.000000 0.000000 0.000000 0.243017 -0.131530 -1.151499 0.061107 0.194385 0.300921 0.034262 2.320886 0.092976 0.000000 0.000000 0.000000 1.137741 0.343363 0.140030 1.178365 1.758941 0.132345 1.141927 0.750472 0.293727 0.000000 0.000000 0.000000 
-3259.420410 889.110962 1129.845947 -3.302271 -2.434836 -0.268452 -0.581058 -0.615108 0.744637 -0.507530 0.036835 -0.311249 -0.535704 -0.053707 0.114191 0.186618 -4.309309 -0.259731 0.000000 0.000000 0.000000 -0.379556 8.827915 -3.783245 -2.160232 8.440988 -1.565808 4.142668 -58.042018 10.213741 0.000000 0.000000 0.000000 0.590358 7.090481 0.112318 3.808109 7.819072 1.867663 -2.106362 -24.582274 -3.629203 0.000000 0.000000 0.000000 0.339664 -0.011159 -1.282642 0.146411 0.062921 0.306878 0.114376 2.257596 0.128414 0.000000 0.000000 0.000000 1.208314 0.337258 -0.012922 1.233661 1.938272 0.215577 1.190764 0.581301 0.376904 0.000000 0.000000 0.000000 
-3255.949951 890.499756 1130.047974 -3.527714 -2.328497 -0.259674 -0.486138 -0.584386 0.764215 -0.414529 0.034237 -0.267466 -0.439641 -0.071858 0.104820 0.184569 -4.173130 -0.306920 0.000000 0.000000 0.000000 -0.561950 10.285935 -4.883452 -2.527606 9.380271 -1.875163 4.186358 -67.318275 10.795050 0.000000 0.000000 0.000000 0.669481 8.641336 0.223853 4.491663 9.424179 2.507014 -2.620782 -30.496404 -5.237595 0.000000 0.000000 0.000000 0.449526 0.107241 -1.400587 0.249056 -0.050089 0.286475 0.208679 2.180466 0.170047 0.000000 0.000000 0.000000 1.296417 0.336667 -0.159758 1.309521 2.151113 0.278180 1.254391 0.379140 0.478848 0.000000 0.000000 0.000000 
-3251.845215 891.915894 1130.218994 -3.823914 -2.208484 -0.255621 -0.348444 -0.480897 0.762714 -0.281049 0.021184 -0.222950 -0.303773 -0.078439 0.103775 0.157214 -4.091751 -0.291805 0.000000 0.000000 0.000000 -0.778725 11.573112 -5.979310 -2.977222 10.003114 -2.168510 4.072440 -75.719165 11.219616 0.000000 0.000000 0.000000 0.931137 10.266173 0.575842 4.954387 10.827546 2.673814 -3.018680 -35.885660 -6.222077 0.000000 0.000000 0.000000 0.585678 0.229890 -1.504874 0.380977 -0.148077 0.251482 0.329743 2.089501 0.223765 0.000000 0.000000 0.000000 1.401608 0.343996 -0.276617 1.410974 2.404278 0.282652 1.333432 0.144971 0.599507 0.000000 0.000000 0.000000 
-3247.159424 893.371216 1130.390991 -4.200385 -2.077890 -0.252740 -0.162465 -0.321379 0.733033 -0.101981 -0.000866 -0.174533 -0.122995 -0.077491 0.107218 0.107005 -4.039065 -0.223161 0.000000 0.000000 0.000000 -1.050226 12.776762 -7.133984 -3.596336 10.386030 -2.471579 3.843131 -83.757763 11.508443 0.000000 0.000000 0.000000 1.331434 12.040663 1.076908 5.210076 12.133833 2.587074 -3.368609 -41.090284 -6.815316 0.000000 0.000000 0.000000 0.746884 0.356210 -1.597200 0.541987 -0.234141 0.191710 0.475892 1.994648 0.289118 0.000000 0.000000 0.000000 1.528250 0.362591 -0.378962 1.539161 2.692745 0.247718 1.431605 -0.108830 0.736332 0.000000 0.000000 0.000000 
